<svg width="18" height="17" viewBox="0 0 18 17" fill="none" xmlns="http://www.w3.org/2000/svg">
<path d="M0 1.03112C0 1.28779 0.0865385 1.53561 0.242308 1.72591L6.82788 9.68278C6.98365 9.87307 7.07019 10.1209 7.07019 10.3776V15.1127C7.07019 15.5553 7.32548 15.9447 7.70192 16.0863L10.0817 16.9626C10.4971 17.1175 10.9298 16.7723 10.9298 16.2855V10.3731C10.9298 10.1165 11.0163 9.86864 11.1721 9.67835L17.7577 1.72148C17.9135 1.53119 18 1.28337 18 1.02669C18 0.460242 17.5846 0 17.074 0H0.925962C0.415385 0.0044254 0 0.464667 0 1.03112Z" fill="#F34949"/>
</svg>
