<svg width="19" height="18" viewBox="0 0 19 18" fill="none" xmlns="http://www.w3.org/2000/svg">
<path fill-rule="evenodd" clip-rule="evenodd" d="M13.8389 0H13.8846C16.7118 0.027 19 2.2905 19 5.085C19 6.75 18.2601 9.1125 16.8168 11.0565C14.0673 14.76 9.5 18 9.5 18C9.5 18 4.93269 14.76 2.18317 11.0565C0.739904 9.1125 0 6.75 0 5.085C0 2.2905 2.28822 0.027 5.11538 0H5.16106C6.97428 0 8.5774 0.945 9.5 2.34C10.4226 0.945 12.0257 0 13.8389 0ZM9.5 16.416C10.8748 15.3585 13.8389 12.9375 15.7846 10.314C17.1228 8.5095 17.7212 6.39 17.7303 5.085C17.7303 4.0725 17.3329 3.114 16.6067 2.394C15.8805 1.674 14.9123 1.2735 13.8846 1.2645H13.8435C13.1904 1.2645 12.5418 1.431 11.9663 1.7505C11.4091 2.061 10.9296 2.502 10.5779 3.033C10.3404 3.3885 9.93846 3.6045 9.50457 3.6045C9.07067 3.6045 8.66875 3.3885 8.43125 3.033C8.08414 2.502 7.6 2.061 7.04279 1.7505C6.46731 1.431 5.81875 1.2645 5.16563 1.2645H5.12452C4.09231 1.2735 3.12861 1.674 2.4024 2.394C1.68077 3.114 1.27885 4.068 1.27885 5.085C1.27885 6.39 1.87716 8.5095 3.21538 10.3095C5.16106 12.933 8.12524 15.3585 9.5 16.416Z" fill="#FEFEFE"/>
</svg>
