<svg width="13" height="12" viewBox="0 0 13 12" fill="none" xmlns="http://www.w3.org/2000/svg">
<path d="M12.5067 4.15385H8.23817L6.94107 0.305769C6.87723 0.118269 6.70022 0 6.5 0C6.29978 0 6.12277 0.118269 6.05893 0.305769L4.76183 4.15385H0.464286C0.208929 4.15385 0 4.36154 0 4.61538C0 4.64135 0.00290179 4.67019 0.00870536 4.69327C0.0145089 4.79423 0.0609375 4.90673 0.203125 5.01923L3.71138 7.47692L2.36496 11.3683C2.29821 11.5558 2.36496 11.7663 2.52455 11.8875C2.60871 11.9481 2.68705 12 2.78571 12C2.88147 12 2.99464 11.951 3.07589 11.8962L6.5 9.47019L9.92411 11.8962C10.0054 11.9538 10.1185 12 10.2143 12C10.3129 12 10.3913 11.951 10.4725 11.8875C10.635 11.7663 10.6989 11.5587 10.6321 11.3683L9.28571 7.47692L12.765 4.99615L12.8491 4.92404C12.9246 4.84327 13 4.73365 13 4.61538C13 4.36154 12.7621 4.15385 12.5067 4.15385Z" fill="#F34949"/>
</svg>
